# xmcd
#
# Track frame offsets:
#	150
#	11357
#	27900
#	40199
#	55423
#	67988
#	84267
#	100919
#	110762
#	123093
#	134075
#	145865
#
# Disc length: 2245 seconds
#
# Revision: 1
# Processed by: cddbd v1.5.2PL0 Copyright (c) Steve Scherf et al.
# Submitted via: audiograbber 1.83.01
#
DISCID=9e08c30c
DTITLE=Inger Nordström n her Rinestone Band - Rockin' little X-mas
DYEAR=2006
DGENRE=Country
TTITLE0=Hangin' round the mistletoe
TTITLE1=All I want for Christmas is you
TTITLE2=Rockin' little Christmas
TTITLE3=Pretty little baby
TTITLE4=Santa's got a semi
TTITLE5=Aint no Christmas
TTITLE6=Silent Night
TTITLE7=All my love for Christmas
TTITLE8=Away in a manger
TTITLE9=Reindeer Boogie
TTITLE10=Santas Back on Track
TTITLE11=O Holy night
EXTD=Correct titles
EXTT0=
EXTT1=
EXTT2=
EXTT3=
EXTT4=
EXTT5=
EXTT6=
EXTT7=
EXTT8=
EXTT9=
EXTT10=
EXTT11=
PLAYORDER=
